<?xml version="1.0" encoding="UTF-8"?>
<!DOCTYPE svg PUBLIC "-//W3C//DTD SVG 1.1//EN" "http://www.w3.org/Graphics/SVG/1.1/DTD/svg11.dtd">
<!-- Creator: CorelDRAW X8 -->
<svg xmlns="http://www.w3.org/2000/svg" xml:space="preserve" width="297mm" height="210mm" version="1.1" style="shape-rendering:geometricPrecision; text-rendering:geometricPrecision; image-rendering:optimizeQuality; fill-rule:evenodd; clip-rule:evenodd"
viewBox="0 0 29700 21000"
 xmlns:xlink="http://www.w3.org/1999/xlink">
 <defs>
  <style type="text/css">
   <![CDATA[
    .fil2 {fill:#00B7EE}
    .fil1 {fill:#006CB7}
    .fil0 {fill:#263C92}
    .fil3 {fill:#332C2B;fill-rule:nonzero}
   ]]>
  </style>
 </defs>
 <g id="Layer_x0020_1">
  <metadata id="CorelCorpID_0Corel-Layer"/>
  <g id="_1968202250064">
   <path class="fil0" d="M14850 3050c241,405 608,791 966,1231 643,790 1045,1661 1201,2670 134,857 53,1727 -347,2549 -443,910 -1164,1688 -1820,2331l0 -1641c278,-341 827,-1065 963,-1665 303,-1339 -250,-2862 -963,-3633l0 -1842z"/>
   <path class="fil0" d="M14850 3050c-241,405 -608,791 -966,1231 -643,790 -1045,1661 -1201,2670 -134,857 -53,1727 347,2549 443,910 1164,1688 1820,2331l0 -1641c-278,-341 -827,-1065 -963,-1665 -303,-1339 250,-2862 963,-3633l0 -1842z"/>
   <path class="fil1" d="M14055 10996c261,300 533,578 795,835 376,-369 774,-782 1128,-1239 70,-542 -122,-993 -438,-1399 -221,401 -511,778 -690,997 -286,335 -397,435 -795,806z"/>
   <path class="fil1" d="M14850 3050c-241,405 -608,791 -966,1231 -52,64 -103,129 -152,194 -63,551 144,1011 475,1425 178,-398 401,-747 643,-1008 283,-340 630,-676 781,-833 -295,-351 -582,-674 -781,-1009z"/>
   <path class="fil2" d="M12971 6307c245,1582 3254,2374 3007,4285 245,-314 439,-613 617,-944 996,-2214 -3115,-2959 -2863,-5173 -301,405 -520,753 -690,1195 -81,208 -105,418 -71,637z"/>
   <g>
    <path class="fil3" d="M9546 15331c0,117 -21,220 -65,308 -43,88 -103,162 -177,221 -75,59 -161,103 -261,133 -100,30 -207,45 -320,45 -77,0 -149,-6 -214,-19 -66,-12 -124,-27 -175,-45 -50,-18 -92,-36 -126,-56 -34,-20 -58,-37 -73,-52 -15,-15 -26,-36 -32,-64 -6,-28 -9,-69 -9,-121 0,-36 1,-66 3,-90 2,-24 6,-44 11,-58 5,-15 12,-26 21,-32 8,-7 18,-9 30,-9 16,0 39,9 68,28 29,19 66,40 113,63 45,22 100,44 163,62 64,19 138,28 222,28 55,0 104,-6 148,-19 43,-13 80,-32 110,-56 30,-24 54,-54 70,-89 16,-36 24,-76 24,-119 0,-50 -14,-94 -41,-130 -28,-36 -64,-68 -108,-96 -44,-28 -94,-54 -150,-79 -56,-25 -114,-51 -174,-78 -60,-28 -118,-59 -173,-94 -57,-35 -107,-77 -151,-126 -44,-48 -80,-106 -108,-172 -27,-67 -41,-146 -41,-240 0,-106 20,-200 60,-281 39,-80 92,-148 160,-200 67,-54 146,-94 237,-120 91,-27 188,-39 290,-39 52,0 105,3 158,11 53,8 102,19 148,33 45,14 86,29 122,46 35,17 59,32 70,43 12,12 19,21 24,30 4,8 7,18 10,31 2,14 5,30 6,50 1,20 1,45 1,75 0,33 0,61 -2,84 -2,23 -5,42 -9,57 -4,15 -9,26 -17,32 -8,8 -18,11 -30,11 -13,0 -33,-8 -60,-24 -28,-16 -61,-33 -102,-52 -40,-20 -86,-37 -139,-52 -53,-16 -110,-23 -174,-23 -49,0 -92,5 -128,18 -37,12 -68,29 -92,50 -25,21 -43,46 -56,76 -11,30 -18,62 -18,94 0,50 14,93 41,129 27,36 63,68 108,96 46,28 97,55 154,79 58,25 116,51 176,79 59,27 118,58 175,93 57,35 108,77 153,125 44,49 81,107 108,172 28,67 41,144 41,233zm3310 499c14,41 23,74 26,98 3,24 -1,42 -14,54 -12,13 -35,20 -67,22 -32,3 -76,5 -133,5 -58,0 -103,-1 -136,-3 -33,-2 -58,-5 -75,-10 -17,-5 -29,-12 -36,-21 -7,-10 -13,-22 -17,-37l-150 -446 -836 0 -140 434c-5,16 -11,30 -19,41 -7,10 -19,19 -35,26 -17,6 -41,10 -71,13 -30,2 -70,3 -120,3 -52,0 -93,-2 -123,-5 -30,-4 -51,-12 -62,-25 -12,-13 -16,-32 -12,-56 3,-24 12,-56 25,-96l687 -1974c7,-19 14,-35 24,-47 9,-12 24,-22 44,-28 20,-6 47,-10 83,-12 35,-2 83,-3 141,-3 67,0 121,1 162,3 40,2 71,6 93,12 22,6 39,16 48,29 10,12 18,29 25,51l688 1972zm-1022 -1631l-1 0 -315 945 631 0 -315 -945zm3723 -240c0,34 -2,62 -5,85 -3,24 -7,43 -13,57 -5,14 -12,26 -21,32 -8,7 -18,11 -28,11l-557 0 0 1793c0,11 -4,22 -11,30 -8,10 -20,18 -37,23 -17,6 -41,10 -70,14 -29,3 -65,5 -109,5 -44,0 -80,-2 -110,-5 -28,-4 -52,-8 -69,-14 -17,-5 -30,-13 -37,-23 -7,-8 -11,-19 -11,-30l0 -1793 -558 0c-11,0 -21,-4 -28,-11 -8,-6 -16,-18 -21,-32 -6,-14 -10,-33 -13,-57 -3,-23 -4,-51 -4,-85 0,-34 1,-63 4,-87 3,-24 7,-44 13,-58 5,-14 13,-24 21,-31 7,-6 17,-9 28,-9l1569 0c10,0 20,3 28,9 9,7 16,17 21,31 6,14 10,34 13,58 3,24 5,53 5,87zm2346 1196l0 782c0,11 -3,22 -11,30 -7,10 -19,18 -37,23 -17,6 -40,10 -69,14 -29,3 -66,5 -109,5 -45,0 -82,-2 -110,-5 -29,-4 -52,-8 -70,-14 -18,-5 -30,-13 -37,-23 -7,-8 -10,-19 -10,-30l0 -782 -609 -1213c-21,-42 -36,-75 -42,-98 -7,-24 -3,-42 10,-54 13,-12 38,-19 73,-22 36,-3 85,-5 148,-5 53,0 95,1 126,4 32,2 57,6 75,13 19,6 32,14 41,25 8,10 16,23 25,39l247 547c24,53 48,108 72,167 23,59 47,120 71,184l3 0c22,-62 44,-123 67,-181 23,-58 45,-114 68,-166l244 -544c5,-18 13,-33 21,-44 9,-10 22,-20 39,-26 17,-7 40,-12 70,-14 30,-3 69,-4 119,-4 65,0 116,2 152,5 36,3 61,10 74,22 13,12 16,30 10,54 -7,24 -21,57 -42,98l-609 1213zm3637 675c13,41 22,74 26,98 2,24 -2,42 -15,54 -12,13 -34,20 -66,22 -33,3 -77,5 -133,5 -58,0 -104,-1 -137,-3 -32,-2 -57,-5 -74,-10 -17,-5 -30,-12 -37,-21 -6,-10 -12,-22 -17,-37l-149 -446 -836 0 -141 434c-5,16 -11,30 -18,41 -7,10 -19,19 -36,26 -16,6 -40,10 -70,13 -31,2 -71,3 -120,3 -53,0 -94,-2 -124,-5 -30,-4 -50,-12 -62,-25 -11,-13 -15,-32 -12,-56 4,-24 12,-56 26,-96l686 -1974c7,-19 15,-35 24,-47 9,-12 24,-22 44,-28 20,-6 48,-10 83,-12 36,-2 83,-3 141,-3 68,0 122,1 162,3 40,2 71,6 94,12 22,6 38,16 48,29 10,12 18,29 25,51l688 1972zm-1022 -1631l-2 0 -314 945 631 0 -315 -945z"/>
    <path class="fil3" d="M9636 17890c0,6 -2,13 -6,18 -4,6 -11,10 -21,13 -10,4 -23,7 -40,9 -16,2 -37,3 -63,3 -25,0 -46,-1 -62,-3 -17,-2 -30,-5 -40,-9 -10,-3 -16,-7 -21,-13 -4,-5 -6,-12 -6,-18l0 -1093 -2 0 -389 1092c-3,8 -7,16 -13,22 -7,6 -15,10 -26,14 -11,3 -24,5 -41,6 -16,1 -36,2 -60,2 -24,0 -43,-1 -60,-3 -17,-1 -30,-4 -41,-8 -11,-4 -19,-8 -26,-14 -6,-5 -10,-12 -12,-19l-376 -1092 -2 0 0 1093c0,6 -2,13 -6,18 -3,6 -10,10 -21,13 -10,4 -23,7 -40,9 -16,2 -37,3 -63,3 -24,0 -45,-1 -62,-3 -16,-2 -30,-5 -40,-9 -10,-3 -17,-7 -20,-13 -4,-5 -6,-12 -6,-18l0 -1197c0,-35 9,-62 28,-81 19,-19 43,-28 75,-28l178 0c32,0 59,3 82,8 23,5 43,14 59,26 17,12 30,28 42,48 11,19 20,43 29,72l290 801 5 0 300 -798c10,-29 19,-54 30,-74 11,-20 23,-36 37,-49 14,-12 31,-21 51,-26 19,-5 42,-8 67,-8l184 0c18,0 35,3 48,7 14,5 25,12 33,22 9,9 15,20 20,34 5,13 7,29 7,46l0 1197zm1092 0c0,6 -2,13 -7,18 -4,6 -12,10 -22,13 -11,4 -24,7 -42,9 -17,2 -39,3 -66,3 -26,0 -48,-1 -66,-3 -18,-2 -32,-5 -42,-9 -10,-3 -18,-7 -22,-13 -5,-5 -7,-12 -7,-18l0 -1269c0,-7 2,-13 7,-18 4,-6 12,-11 23,-14 10,-3 24,-6 41,-8 18,-2 40,-3 66,-3 27,0 49,1 66,3 18,2 31,5 42,8 10,3 18,8 22,14 5,5 7,11 7,18l0 1269zm1712 -1194c0,20 -1,37 -3,51 -2,14 -4,26 -8,35 -3,8 -8,15 -12,19 -6,4 -11,6 -18,6l-336 0 0 1083c0,6 -2,13 -7,18 -4,6 -12,10 -22,13 -10,4 -24,7 -42,9 -18,2 -39,3 -66,3 -26,0 -48,-1 -66,-3 -17,-2 -31,-5 -42,-9 -10,-3 -18,-7 -22,-13 -5,-5 -7,-12 -7,-18l0 -1083 -336 0c-7,0 -13,-2 -18,-6 -5,-4 -9,-11 -12,-19 -4,-9 -6,-21 -8,-35 -2,-14 -3,-31 -3,-51 0,-21 1,-38 3,-53 2,-14 4,-26 8,-35 3,-8 7,-14 12,-18 5,-4 11,-6 18,-6l946 0c7,0 12,2 18,6 4,4 9,10 12,18 4,9 6,21 8,35 2,15 3,32 3,53zm1681 1195c0,8 -2,15 -5,20 -3,5 -9,9 -20,13 -10,3 -25,6 -45,7 -20,1 -47,2 -82,2 -29,0 -52,-1 -69,-2 -18,-1 -32,-4 -42,-8 -9,-4 -17,-9 -21,-14 -4,-6 -8,-13 -10,-22l-120 -300c-15,-34 -29,-64 -43,-90 -14,-26 -29,-48 -46,-66 -17,-17 -37,-31 -59,-40 -22,-9 -48,-13 -77,-13l-85 0 0 512c0,6 -2,13 -6,18 -5,6 -12,10 -23,13 -10,4 -24,7 -42,9 -17,2 -39,3 -66,3 -26,0 -48,-1 -66,-3 -17,-2 -31,-5 -42,-9 -10,-3 -17,-7 -21,-13 -5,-5 -7,-12 -7,-18l0 -1220c0,-30 8,-52 24,-66 15,-13 34,-20 57,-20l348 0c35,0 64,1 87,2 23,2 44,3 62,5 54,8 103,21 146,40 43,19 80,43 110,73 30,30 53,66 69,107 16,41 24,88 24,141 0,45 -6,86 -17,123 -12,37 -29,70 -50,99 -23,29 -50,55 -83,76 -32,21 -69,39 -111,52 21,10 39,22 57,35 18,14 34,31 50,51 15,20 30,42 44,67 14,25 27,54 40,86l113 264c11,26 18,46 21,58 4,12 6,22 6,28zm-353 -911c0,-44 -9,-81 -30,-112 -19,-30 -52,-52 -98,-64 -14,-4 -29,-6 -47,-8 -18,-2 -42,-3 -73,-3l-123 0 0 380 139 0c39,0 73,-4 102,-14 29,-9 53,-22 72,-39 20,-17 34,-37 44,-61 10,-23 14,-50 14,-79zm2178 845c9,25 14,45 16,59 2,15 -1,26 -8,33 -8,7 -21,12 -41,13 -19,2 -46,3 -80,3 -35,0 -63,-1 -82,-2 -20,-1 -35,-3 -45,-6 -11,-3 -18,-7 -22,-13 -4,-5 -8,-12 -11,-22l-90 -269 -504 0 -85 262c-3,10 -7,18 -11,25 -5,6 -12,11 -22,15 -10,4 -24,7 -42,8 -19,1 -43,2 -73,2 -32,0 -56,-1 -74,-3 -18,-2 -31,-7 -38,-15 -7,-8 -9,-19 -7,-34 2,-14 7,-34 16,-58l414 -1191c4,-12 8,-21 14,-29 6,-7 15,-13 27,-16 12,-4 28,-7 50,-8 21,-1 50,-1 85,-1 41,0 73,0 98,1 24,1 43,4 56,8 14,3 23,9 29,17 6,7 11,18 15,31l415 1190zm-616 -985l-1 0 -190 571 381 0 -190 -571zm2887 -47c0,19 0,37 -2,51 -2,15 -5,27 -8,35 -3,9 -6,15 -11,18 -5,4 -10,5 -16,5 -9,0 -24,-6 -44,-18 -20,-13 -46,-26 -80,-41 -33,-14 -73,-28 -118,-40 -46,-13 -100,-19 -161,-19 -65,0 -124,11 -176,34 -53,22 -98,54 -135,95 -37,41 -66,91 -86,149 -20,58 -30,121 -30,191 0,77 10,145 30,203 21,59 49,108 86,147 37,39 81,69 132,89 52,20 109,30 171,30 30,0 60,-3 90,-10 30,-7 58,-17 83,-31l0 -311 -254 0c-12,0 -22,-8 -29,-24 -7,-15 -10,-42 -10,-79 0,-20 0,-36 2,-49 2,-13 4,-24 8,-31 4,-9 7,-14 12,-18 5,-4 11,-6 17,-6l453 0c11,0 21,2 30,6 9,4 16,9 23,17 7,8 12,17 15,27 3,11 5,23 5,37l0 535c0,20 -4,38 -11,54 -7,15 -22,28 -44,37 -23,9 -51,18 -84,28 -33,10 -67,18 -103,25 -36,7 -72,12 -108,15 -36,4 -73,5 -110,5 -107,0 -203,-15 -288,-46 -84,-30 -156,-75 -215,-133 -58,-59 -103,-130 -135,-214 -31,-84 -46,-180 -46,-286 0,-110 16,-209 50,-296 33,-88 80,-162 141,-224 60,-61 134,-108 220,-140 86,-33 182,-49 288,-49 58,0 111,4 159,12 47,8 89,18 125,29 35,11 65,24 88,37 24,13 40,25 50,34 9,10 16,24 20,41 4,18 6,44 6,79zm1903 1032c8,25 13,45 16,59 1,15 -1,26 -9,33 -7,7 -21,12 -40,13 -20,2 -46,3 -80,3 -35,0 -63,-1 -83,-2 -19,-1 -35,-3 -45,-6 -10,-3 -18,-7 -22,-13 -4,-5 -7,-12 -10,-22l-90 -269 -505 0 -85 262c-3,10 -6,18 -11,25 -4,6 -11,11 -21,15 -10,4 -25,7 -43,8 -18,1 -42,2 -72,2 -32,0 -57,-1 -75,-3 -18,-2 -30,-7 -37,-15 -7,-8 -10,-19 -8,-34 3,-14 8,-34 16,-58l414 -1191c4,-12 9,-21 15,-29 5,-7 14,-13 26,-16 12,-4 29,-7 51,-8 21,-1 49,-1 85,-1 40,0 73,0 97,1 24,1 43,4 57,8 13,3 23,9 29,17 6,7 11,18 15,31l415 1190zm-617 -985l-1 0 -190 571 381 0 -190 -571zm2126 684c0,71 -13,132 -39,186 -26,53 -62,98 -107,133 -45,36 -97,63 -158,81 -60,18 -124,27 -193,27 -46,0 -89,-4 -129,-12 -40,-7 -75,-16 -105,-27 -31,-11 -56,-22 -77,-34 -20,-12 -35,-22 -44,-31 -9,-9 -15,-22 -19,-39 -4,-17 -5,-41 -5,-73 0,-22 0,-40 1,-54 2,-15 4,-27 7,-35 3,-9 7,-16 13,-20 5,-3 11,-5 18,-5 9,0 23,5 41,17 17,11 40,24 68,38 28,13 61,26 99,38 38,11 83,17 133,17 34,0 63,-4 90,-12 26,-8 48,-20 67,-34 18,-15 32,-32 41,-54 10,-22 15,-45 15,-72 0,-30 -8,-56 -25,-78 -17,-22 -38,-41 -65,-58 -26,-17 -57,-33 -90,-48 -34,-15 -69,-31 -105,-47 -36,-16 -71,-36 -105,-57 -34,-21 -64,-46 -91,-75 -27,-30 -48,-64 -65,-104 -17,-41 -25,-89 -25,-145 0,-64 12,-121 36,-170 24,-48 56,-89 97,-121 40,-32 88,-56 143,-72 55,-16 113,-24 175,-24 31,0 63,2 95,7 32,5 62,12 89,20 28,8 52,18 74,28 22,10 36,19 42,26 8,7 12,13 15,18 2,5 4,11 6,19 1,8 3,18 4,30 0,12 0,27 0,45 0,20 0,37 -1,51 -1,14 -3,25 -5,34 -3,9 -6,16 -11,20 -4,4 -10,6 -18,6 -8,0 -20,-5 -36,-14 -17,-10 -37,-21 -62,-32 -24,-12 -52,-22 -83,-31 -32,-10 -67,-14 -105,-14 -30,0 -56,3 -78,11 -22,7 -41,17 -55,30 -15,13 -26,28 -34,46 -7,18 -11,37 -11,57 0,30 8,56 25,78 16,21 38,41 65,58 27,17 58,33 93,47 35,15 70,31 106,48 36,16 71,35 106,56 34,21 65,46 92,76 27,29 49,64 65,103 17,40 25,87 25,141z"/>
   </g>
  </g>
 </g>
</svg>
