<?xml version="1.0" encoding="UTF-8"?>
<!DOCTYPE svg PUBLIC "-//W3C//DTD SVG 1.1//EN" "http://www.w3.org/Graphics/SVG/1.1/DTD/svg11.dtd">
<!-- Creator: CorelDRAW X7 -->
<svg xmlns="http://www.w3.org/2000/svg" xml:space="preserve" width="5000mm" height="5000mm" version="1.1" style="shape-rendering:geometricPrecision; text-rendering:geometricPrecision; image-rendering:optimizeQuality; fill-rule:evenodd; clip-rule:evenodd"
viewBox="0 0 7000 7000"
 xmlns:xlink="http://www.w3.org/1999/xlink">
 <defs>
  <style type="text/css">
   <![CDATA[
    .fil0 {fill:#FEFEFE}
    .fil1 {fill:#89765B}
    .fil2 {fill:#DAB96B}
   ]]>
  </style>
 </defs>
 <g id="Layer_x0020_1">
  <metadata id="CorelCorpID_0Corel-Layer"/>
  <g id="_2434177454400">
   <rect class="fil0" width="7000" height="7000"/>
   <g>
    <path class="fil1" d="M1066 4326c8,2 16,3 23,4 7,1 14,2 21,2 37,0 66,-12 87,-36 22,-23 32,-55 32,-94 0,-36 -10,-64 -30,-82 -20,-19 -49,-28 -88,-28 -2,0 -6,0 -12,-1 -7,0 -12,0 -16,0 -5,0 -8,0 -10,0 -3,0 -5,1 -7,1l0 234zm0 147c0,19 4,33 13,41 9,9 23,13 43,13l7 0 0 16 -189 0 0 -16 7 0c20,0 34,-4 43,-13 9,-8 13,-22 13,-41l0 -328c0,-19 -4,-34 -13,-43 -9,-9 -24,-14 -43,-14 -1,0 -1,0 -2,1 -1,0 -2,0 -3,0 -1,0 -1,0 -2,0 0,0 0,0 0,-1l0 -15 168 0c63,0 109,11 141,34 32,23 47,57 47,103 0,43 -15,77 -45,102 -30,25 -72,37 -125,37 -9,0 -18,0 -28,-1 -10,-1 -21,-2 -32,-3l0 128zm449 -399l0 16 -8 0c-19,0 -34,5 -43,13 -8,9 -13,23 -13,42l0 198c0,31 2,55 7,72 4,17 12,33 22,46 13,17 31,31 54,40 23,10 48,15 77,15 30,0 57,-5 81,-15 24,-10 42,-24 55,-42 10,-12 16,-28 20,-46 4,-18 6,-45 6,-81l0 -187c0,-19 -5,-33 -13,-42 -9,-8 -24,-13 -43,-13l-8 0 0 -16 162 0 0 16 -7 0c-20,0 -35,5 -44,13 -8,9 -13,23 -13,42l0 198c0,73 -17,126 -51,160 -34,34 -88,51 -161,51 -69,0 -120,-17 -154,-52 -34,-35 -51,-88 -51,-159l0 -198c0,-19 -4,-33 -13,-42 -9,-8 -23,-13 -43,-13l-8 0 0 -16 189 0zm396 469l0 -16 8 0c19,0 34,-4 43,-13 8,-8 13,-22 13,-41l0 -328c0,-19 -5,-33 -13,-42 -10,-8 -24,-13 -43,-13l-8 0 0 -16 153 0c73,0 128,12 163,34 36,22 54,56 54,103 0,28 -8,52 -24,72 -16,20 -39,36 -70,47l43 72c28,48 52,82 70,102 18,21 35,32 50,34l-2 15 -9 0c-22,0 -43,-5 -62,-14 -20,-10 -37,-24 -52,-43 -18,-23 -36,-50 -54,-83 -18,-33 -30,-52 -34,-58 -2,-3 -5,-4 -8,-5 -3,-1 -8,-2 -13,-2 -4,0 -12,1 -24,1 -12,1 -23,1 -31,1 -2,0 -6,0 -12,-1 -5,0 -9,0 -12,0l0 124c0,19 5,33 13,41 9,9 23,13 42,13l9 0 0 16 -190 0zm126 -209l52 0c37,0 66,-10 87,-31 21,-20 32,-49 32,-85 0,-40 -11,-70 -33,-91 -21,-21 -52,-31 -92,-31 -2,0 -7,0 -13,0 -6,-1 -11,-1 -15,-1 -5,0 -8,0 -11,0 -2,1 -4,1 -7,1l0 238zm458 139c0,19 4,33 13,41 9,9 23,13 43,13l8 0 0 16 -190 0 0 -16 8 0c20,0 34,-4 43,-13 9,-8 13,-22 13,-41l0 -328c0,-19 -4,-33 -13,-42 -9,-8 -23,-13 -43,-13l-8 0 0 -16 190 0 0 16 -8 0c-20,0 -34,5 -43,13 -9,9 -13,23 -13,42l0 328zm398 0c0,19 5,33 14,42 8,8 23,13 43,13l4 0 3 0 0 15 -190 0 0 -15 7 0c20,0 35,-5 44,-13 8,-9 13,-23 13,-42l0 -328c0,-19 -5,-33 -13,-42 -9,-8 -24,-13 -44,-13l-7 0 0 -16 190 0 0 16 -7 0c-20,0 -35,5 -43,13 -9,9 -14,23 -14,42l0 165c14,0 30,-6 46,-18 16,-11 36,-32 60,-60 22,-26 39,-48 51,-68 13,-20 19,-34 19,-43 0,-9 -3,-16 -10,-21 -7,-5 -20,-8 -40,-11l0 -15 186 0 0 15c-18,2 -34,5 -46,9 -12,4 -23,8 -31,14 -6,5 -12,10 -18,18 -6,7 -15,21 -28,40 -17,27 -35,51 -52,72 -18,21 -36,40 -55,58 8,4 16,9 24,15 7,5 14,11 20,18 19,19 41,47 68,84 26,37 46,62 59,76 12,13 23,22 34,27 11,5 24,8 39,8 1,0 3,0 5,0 2,0 4,0 5,0 2,0 3,0 3,0 1,0 2,0 3,0l0 15 -204 0 0 -15 11 0c11,0 20,-2 25,-5 6,-3 9,-7 9,-14 0,-9 -8,-25 -24,-48 -15,-23 -36,-49 -63,-78 -18,-20 -34,-34 -46,-41 -13,-8 -27,-12 -41,-12 0,0 -1,0 -3,0 -1,0 -2,-1 -2,-1 -1,0 -2,1 -3,1 0,0 -1,0 -1,0l0 143zm312 70l0 -16 14 0c27,0 46,-4 57,-12 10,-9 16,-23 16,-44l0 -326c0,-19 -5,-33 -14,-42 -8,-8 -23,-13 -43,-13l-7 0 0 -16 336 0 5 106 -16 0c-4,-32 -12,-53 -23,-63 -10,-10 -35,-15 -73,-15l-103 0 0 185 93 0c30,0 50,-4 58,-11 8,-8 13,-23 16,-45l13 0 0 144 -14 0c-3,-24 -7,-41 -14,-49 -7,-7 -27,-11 -59,-11l-93 0 0 139c0,25 4,42 13,50 9,8 27,12 55,12l60 0c31,0 54,-6 67,-18 13,-12 23,-34 29,-67l15 0 -10 112 -378 0zm532 -70c0,19 5,33 14,41 8,9 23,13 43,13l7 0 0 16 -165 0 0 -16 8 0c20,0 34,-4 43,-13 8,-8 13,-22 13,-41l0 -337c0,-17 -3,-28 -9,-33 -6,-5 -23,-10 -49,-14l0 -15 110 0 334 373 0 -302c0,-19 -4,-33 -13,-42 -9,-8 -23,-13 -43,-13l-7 0 0 -16 164 0 0 16 -7 0c-20,0 -34,5 -43,13 -9,9 -13,23 -13,42l0 404 -20 0 -367 -405 0 329zm921 -270c-18,-40 -40,-70 -68,-90 -28,-21 -60,-31 -96,-31 -25,0 -49,5 -73,15 -24,10 -44,23 -61,40 -18,19 -31,42 -41,68 -10,26 -15,54 -15,83 0,72 19,131 56,177 38,45 86,68 145,68 36,0 69,-9 98,-27 29,-19 54,-46 75,-82l16 2 -45 109 -8 0c-15,0 -38,3 -69,10 -32,6 -56,9 -74,9 -37,0 -71,-5 -101,-15 -30,-10 -57,-25 -80,-45 -26,-22 -45,-48 -59,-78 -13,-31 -20,-63 -20,-98 0,-27 4,-53 12,-78 9,-26 21,-50 37,-72 23,-33 53,-58 88,-76 35,-18 73,-28 112,-28 17,0 36,2 56,6 20,3 48,10 84,19 2,1 4,1 8,2 9,2 16,3 20,3 3,0 5,0 7,-1 3,0 5,0 8,-1l6 110 -18 1zm201 105l125 0 -62 -175 -63 175zm-162 235l0 -15c18,-1 32,-4 41,-10 9,-6 19,-23 28,-49l129 -360c2,-6 4,-12 5,-17 2,-4 2,-8 2,-12 0,-2 0,-5 -1,-7 0,-3 -1,-6 -3,-9l62 0 142 401c10,27 19,44 27,52 8,7 19,11 34,11l7 0 0 15 -195 0 1 -15c1,0 1,0 2,0 11,1 19,1 23,1 17,0 30,-2 37,-7 8,-4 12,-11 12,-20 0,-3 -1,-6 -2,-11 -1,-5 -3,-11 -5,-18l-48 -137 -146 0 -50 137c-2,6 -3,12 -4,16 -1,4 -2,8 -2,11 0,10 4,17 11,22 7,5 18,7 34,7 3,0 11,0 21,-1 1,0 1,0 2,0l0 15 -164 0zm578 -70c0,19 4,33 13,41 9,9 23,13 44,13l7 0 0 16 -165 0 0 -16 7 0c20,0 34,-4 43,-13 9,-8 14,-22 14,-41l0 -337c0,-17 -3,-28 -10,-33 -6,-5 -22,-10 -49,-14l0 -15 110 0 335 373 0 -302c0,-19 -5,-33 -14,-42 -8,-8 -23,-13 -42,-13l-8 0 0 -16 165 0 0 16 -7 0c-20,0 -34,5 -43,13 -9,9 -14,23 -14,42l0 404 -20 0 -366 -405 0 329zm614 -165l125 0 -62 -175 -63 175zm-162 235l0 -15c19,-1 32,-4 41,-10 9,-6 19,-23 28,-49l129 -360c3,-6 4,-12 6,-17 1,-4 1,-8 1,-12 0,-2 0,-5 -1,-7 0,-3 -1,-6 -3,-9l62 0 143 401c9,27 18,44 26,52 9,7 20,11 34,11l7 0 0 15 -194 0 0 -15c1,0 1,0 2,0 11,1 19,1 23,1 17,0 30,-2 37,-7 8,-4 12,-11 12,-20 0,-3 -1,-6 -2,-11 -1,-5 -3,-11 -5,-18l-48 -137 -146 0 -50 137c-2,6 -3,12 -4,16 -1,4 -2,8 -2,11 0,10 4,17 11,22 7,5 18,7 34,7 4,0 11,0 21,-1 1,0 1,0 2,0l0 15 -164 0z"/>
    <path class="fil1" d="M459 5204l0 -15 6 0c20,0 34,-4 41,-12 8,-8 12,-26 14,-52l20 -315c0,-2 0,-4 1,-6 0,-2 0,-5 0,-9 0,-15 -3,-25 -10,-32 -6,-6 -17,-10 -35,-13l0 -15 103 0 176 386 178 -386 101 0 0 15c-19,2 -31,6 -37,10 -6,5 -9,12 -9,22 0,2 0,6 0,10 0,5 1,10 1,15l21 309c2,34 7,55 14,62 6,8 20,11 40,11l3 0 0 15 -175 0 0 -15 6 0c20,0 34,-4 44,-13 9,-9 13,-23 13,-43 0,-3 0,-6 0,-8 0,-2 0,-4 -1,-5l-21 -307 -178 388 -21 3 -182 -391 -19 312c0,1 0,3 0,6 0,3 0,5 0,6 0,19 4,33 11,40 8,8 22,12 42,12l0 15 -147 0zm642 0l0 -16 14 0c28,0 47,-4 57,-12 11,-9 16,-23 16,-44l0 -326c0,-19 -4,-33 -13,-42 -9,-8 -23,-13 -43,-13l-8 0 0 -16 339 0 5 106 -17 0c-4,-32 -11,-53 -22,-63 -11,-10 -36,-15 -74,-15l-104 0 0 185 94 0c31,0 50,-4 58,-11 8,-8 14,-23 17,-45l12 0 0 144 -14 0c-2,-24 -7,-41 -14,-48 -7,-8 -27,-12 -59,-12l-94 0 0 139c0,25 5,42 13,50 9,8 28,12 56,12l60 0c32,0 54,-6 67,-18 14,-12 24,-34 30,-67l15 0 -10 112 -381 0zm435 0l0 -16 7 0c20,0 34,-4 43,-13 9,-8 14,-22 14,-41l0 -328c0,-19 -5,-33 -14,-42 -9,-8 -23,-13 -43,-13l-7 0 0 -16 153 0c74,0 129,12 165,34 36,22 54,57 54,103 0,28 -8,52 -24,72 -16,20 -40,36 -71,47l43 72c29,48 53,82 71,102 19,21 35,32 50,34l-1 15 -10 0c-22,0 -43,-5 -62,-14 -20,-10 -37,-24 -52,-43 -18,-23 -37,-50 -55,-83 -18,-33 -30,-52 -34,-58 -2,-2 -5,-4 -8,-5 -3,-1 -8,-2 -13,-2 -4,0 -12,1 -24,1 -13,1 -23,1 -31,1 -3,0 -7,0 -12,0 -5,-1 -10,-1 -12,-1l0 124c0,19 4,33 13,41 8,9 22,13 41,13l10 0 0 16 -191 0zm127 -209l51 0c38,0 68,-10 89,-31 21,-20 31,-49 31,-85 0,-40 -11,-70 -32,-91 -22,-20 -53,-31 -94,-31 -2,0 -6,0 -12,0 -6,0 -12,-1 -16,-1 -5,0 -8,0 -10,1 -3,0 -5,0 -7,0l0 238zm334 209l0 -15 7 0c20,0 35,-5 44,-13 9,-9 13,-23 13,-42l0 -328c0,-19 -4,-33 -13,-42 -9,-8 -24,-13 -44,-13l-7 0 0 -16c58,-2 101,-4 131,-6 29,-1 50,-1 63,-1 53,0 96,3 129,11 33,8 61,20 84,37 28,21 50,47 65,78 16,32 23,66 23,103 0,39 -7,74 -23,105 -15,32 -38,60 -67,84 -26,20 -55,35 -87,44 -31,10 -72,14 -121,14l-197 0zm127 -457l0 384c0,20 5,33 16,41 10,7 32,11 65,11 69,0 122,-19 160,-58 37,-38 56,-92 56,-162 0,-70 -20,-123 -62,-160 -42,-37 -102,-56 -181,-56l-54 0zm395 457l0 -16 14 0c28,0 47,-4 58,-12 10,-9 16,-23 16,-44l0 -326c0,-19 -5,-33 -14,-42 -9,-8 -23,-13 -43,-13l-8 0 0 -16 339 0 5 106 -17 0c-4,-32 -11,-53 -22,-63 -11,-10 -36,-15 -74,-15l-104 0 0 185 94 0c31,0 50,-4 58,-11 9,-8 14,-23 17,-45l12 0 0 144 -14 0c-2,-24 -7,-41 -14,-48 -7,-8 -27,-12 -59,-12l-94 0 0 139c0,25 5,42 14,50 8,8 27,12 55,12l60 0c32,0 54,-6 68,-18 13,-12 23,-34 29,-67l15 0 -10 112 -381 0zm562 -70c0,19 4,33 13,42 9,8 23,13 44,13l4 0 3 0 0 15 -191 0 0 -15 7 0c20,0 35,-5 43,-13 9,-9 14,-23 14,-42l0 -328c0,-19 -5,-33 -14,-42 -8,-8 -23,-13 -43,-13l-7 0 0 -16 191 0 0 16 -7 0c-21,0 -35,5 -44,13 -9,9 -13,23 -13,42l0 165c14,0 29,-6 45,-18 17,-11 37,-32 61,-60 22,-26 39,-48 52,-68 12,-20 19,-34 19,-43 0,-9 -4,-16 -11,-21 -6,-4 -20,-8 -39,-11l0 -15 187 0 0 15c-19,2 -34,5 -47,9 -12,4 -23,9 -31,14 -6,5 -12,10 -18,18 -6,7 -16,21 -28,40 -18,27 -35,51 -53,72 -17,21 -36,40 -55,58 9,4 17,9 24,15 8,5 14,12 21,18 18,19 41,47 68,84 26,37 46,62 59,76 12,13 24,22 35,27 11,5 24,8 39,8 1,0 3,0 5,0 2,0 4,0 5,0 2,0 3,0 3,0 1,0 2,0 3,0l0 15 -205 0 0 -15 10 0c12,0 20,-2 26,-5 6,-3 9,-7 9,-13 0,-10 -8,-26 -24,-49 -16,-23 -37,-49 -64,-78 -18,-20 -34,-34 -47,-41 -13,-8 -26,-12 -40,-12 -1,0 -2,0 -3,0 -2,0 -3,-1 -3,-1 -1,0 -2,1 -2,1 -1,0 -1,0 -1,0l0 143zm432 -165l126 0 -63 -175 -63 175zm-163 235l0 -15c18,-1 32,-4 41,-10 9,-6 19,-23 29,-49l129 -360c3,-6 4,-12 6,-17 1,-4 1,-8 1,-12 0,-2 0,-5 -1,-7 0,-3 -1,-6 -2,-9l62 0 143 401c10,27 19,44 27,52 8,7 20,11 34,11l7 0 0 15 -196 0 1 -15c0,0 1,0 2,0 11,1 19,1 23,1 17,0 30,-2 38,-6 7,-5 11,-12 11,-21 0,-3 0,-6 -2,-11 -1,-5 -3,-11 -5,-18l-48 -136 -147 0 -50 136c-2,6 -4,12 -5,16 -1,4 -1,8 -2,11 0,10 4,17 11,22 8,5 19,7 34,7 4,0 11,0 22,-1 1,0 1,0 2,0l0 15 -165 0zm836 -469l0 16 -7 0c-20,0 -35,5 -44,13 -9,9 -13,23 -13,42l0 198c0,31 2,55 7,72 4,17 12,33 22,46 13,17 31,31 54,40 23,10 49,15 78,15 30,0 57,-5 82,-15 24,-10 42,-24 55,-42 10,-12 16,-28 20,-46 4,-18 6,-45 6,-81l0 -187c0,-19 -4,-33 -13,-42 -9,-8 -24,-13 -44,-13l-7 0 0 -16 163 0 0 16 -8 0c-20,0 -34,5 -43,13 -9,9 -13,23 -13,42l0 198c0,73 -18,126 -52,160 -34,34 -88,51 -162,51 -69,0 -121,-17 -155,-52 -35,-35 -52,-88 -52,-159l0 -198c0,-19 -4,-33 -13,-42 -9,-8 -23,-13 -43,-13l-8 0 0 -16 190 0zm645 399c0,19 5,33 14,41 9,9 23,13 43,13l7 0 0 16 -190 0 0 -16 8 0c20,0 34,-4 43,-13 9,-8 13,-22 13,-41l0 -369 -98 0c-27,0 -45,5 -54,15 -9,10 -16,33 -21,70l-16 0 12 -125 14 0c2,4 4,7 8,8 3,2 11,2 21,2l329 0c11,0 19,0 22,-2 4,-1 7,-4 8,-8l15 0 11 125 -15 0c-5,-37 -12,-60 -21,-70 -9,-10 -27,-15 -55,-15l-98 0 0 369zm304 -165l126 0 -63 -175 -63 175zm-163 235l0 -15c18,-1 32,-4 41,-10 9,-6 19,-23 29,-49l129 -360c3,-6 5,-12 6,-17 1,-4 2,-8 2,-12 0,-2 -1,-5 -1,-7 -1,-3 -2,-6 -3,-9l62 0 143 401c10,27 19,44 27,52 8,7 20,11 34,11l7 0 0 15 -196 0 1 -15c0,0 1,0 2,0 11,1 19,1 23,1 18,0 30,-2 38,-6 7,-5 11,-12 11,-21 0,-3 0,-6 -2,-11 -1,-5 -2,-11 -5,-18l-48 -136 -147 0 -50 136c-2,6 -4,12 -5,16 -1,4 -1,8 -2,11 0,10 4,17 11,22 8,5 19,7 34,7 4,0 12,0 22,-1 1,0 1,0 2,0l0 15 -165 0zm468 0l0 -15 6 0c20,0 34,-4 41,-12 7,-8 12,-26 14,-52l20 -315c0,-2 0,-4 0,-6 1,-2 1,-5 1,-9 0,-15 -3,-25 -10,-32 -6,-6 -18,-10 -35,-13l0 -15 103 0 175 386 179 -386 101 0 0 15c-19,2 -31,6 -37,10 -6,5 -9,12 -9,22 0,2 0,6 0,10 0,5 1,10 1,15l21 309c2,34 7,55 14,62 6,8 20,11 40,11l3 0 0 15 -175 0 0 -15 6 0c20,0 34,-4 43,-13 9,-9 14,-23 14,-43 0,-3 0,-6 0,-8 0,-2 0,-4 -1,-5l-21 -307 -179 388 -20 3 -182 -391 -19 312c0,1 0,3 0,6 0,3 0,5 0,6 0,19 4,33 11,40 8,8 22,12 42,12l0 15 -147 0zm788 -235l126 0 -63 -175 -63 175zm-163 235l0 -15c18,-1 32,-4 41,-10 9,-6 19,-23 28,-49l130 -360c2,-6 4,-12 6,-17 1,-4 1,-8 1,-12 0,-2 0,-5 -1,-7 0,-3 -1,-6 -3,-9l63 0 143 401c10,27 19,44 27,52 8,7 19,11 34,11l7 0 0 15 -196 0 1 -15c0,0 1,0 2,0 11,1 19,1 23,1 17,0 30,-2 37,-6 8,-5 12,-12 12,-21 0,-3 -1,-6 -2,-11 -1,-5 -3,-11 -5,-18l-48 -136 -148 0 -49 136c-2,6 -4,12 -5,16 -1,4 -2,8 -2,11 0,10 4,17 11,22 7,5 19,7 34,7 4,0 11,0 22,-1 0,0 1,0 2,0l0 15 -165 0z"/>
    <path class="fil1" d="M459 5204l0 -15 6 0c20,0 34,-4 41,-12 8,-8 12,-26 14,-52l20 -315c0,-2 0,-4 1,-6 0,-2 0,-5 0,-9 0,-15 -3,-25 -10,-32 -6,-6 -17,-10 -35,-13l0 -15 103 0 176 386 178 -386 101 0 0 15c-19,2 -31,6 -37,10 -6,5 -9,12 -9,22 0,2 0,6 0,10 0,5 1,10 1,15l21 309c2,34 7,55 14,62 6,8 20,11 40,11l3 0 0 15 -175 0 0 -15 6 0c20,0 34,-4 44,-13 9,-9 13,-23 13,-43 0,-3 0,-6 0,-8 0,-2 0,-4 -1,-5l-21 -307 -178 388 -21 3 -182 -391 -19 312c0,1 0,3 0,6 0,3 0,5 0,6 0,19 4,33 11,40 8,8 22,12 42,12l0 15 -147 0zm642 0l0 -16 14 0c28,0 47,-4 57,-12 11,-9 16,-23 16,-44l0 -326c0,-19 -4,-33 -13,-42 -9,-8 -23,-13 -43,-13l-8 0 0 -16 339 0 5 106 -17 0c-4,-32 -11,-53 -22,-63 -11,-10 -36,-15 -74,-15l-104 0 0 185 94 0c31,0 50,-4 58,-11 8,-8 14,-23 17,-45l12 0 0 144 -14 0c-2,-24 -7,-41 -14,-48 -7,-8 -27,-12 -59,-12l-94 0 0 139c0,25 5,42 13,50 9,8 28,12 56,12l60 0c32,0 54,-6 67,-18 14,-12 24,-34 30,-67l15 0 -10 112 -381 0zm435 0l0 -16 7 0c20,0 34,-4 43,-13 9,-8 14,-22 14,-41l0 -328c0,-19 -5,-33 -14,-42 -9,-8 -23,-13 -43,-13l-7 0 0 -16 153 0c74,0 129,12 165,34 36,22 54,57 54,103 0,28 -8,52 -24,72 -16,20 -40,36 -71,47l43 72c29,48 53,82 71,102 19,21 35,32 50,34l-1 15 -10 0c-22,0 -43,-5 -62,-14 -20,-10 -37,-24 -52,-43 -18,-23 -37,-50 -55,-83 -18,-33 -30,-52 -34,-58 -2,-2 -5,-4 -8,-5 -3,-1 -8,-2 -13,-2 -4,0 -12,1 -24,1 -13,1 -23,1 -31,1 -3,0 -7,0 -12,0 -5,-1 -10,-1 -12,-1l0 124c0,19 4,33 13,41 8,9 22,13 41,13l10 0 0 16 -191 0zm127 -209l51 0c38,0 68,-10 89,-31 21,-20 31,-49 31,-85 0,-40 -11,-70 -32,-91 -22,-20 -53,-31 -94,-31 -2,0 -6,0 -12,0 -6,0 -12,-1 -16,-1 -5,0 -8,0 -10,1 -3,0 -5,0 -7,0l0 238zm334 209l0 -15 7 0c20,0 35,-5 44,-13 9,-9 13,-23 13,-42l0 -328c0,-19 -4,-33 -13,-42 -9,-8 -24,-13 -44,-13l-7 0 0 -16c58,-2 101,-4 131,-6 29,-1 50,-1 63,-1 53,0 96,3 129,11 33,8 61,20 84,37 28,21 50,47 65,78 16,32 23,66 23,103 0,39 -7,74 -23,105 -15,32 -38,60 -67,84 -26,20 -55,35 -87,44 -31,10 -72,14 -121,14l-197 0zm127 -457l0 384c0,20 5,33 16,41 10,7 32,11 65,11 69,0 122,-19 160,-58 37,-38 56,-92 56,-162 0,-70 -20,-123 -62,-160 -42,-37 -102,-56 -181,-56l-54 0zm395 457l0 -16 14 0c28,0 47,-4 58,-12 10,-9 16,-23 16,-44l0 -326c0,-19 -5,-33 -14,-42 -9,-8 -23,-13 -43,-13l-8 0 0 -16 339 0 5 106 -17 0c-4,-32 -11,-53 -22,-63 -11,-10 -36,-15 -74,-15l-104 0 0 185 94 0c31,0 50,-4 58,-11 9,-8 14,-23 17,-45l12 0 0 144 -14 0c-2,-24 -7,-41 -14,-48 -7,-8 -27,-12 -59,-12l-94 0 0 139c0,25 5,42 14,50 8,8 27,12 55,12l60 0c32,0 54,-6 68,-18 13,-12 23,-34 29,-67l15 0 -10 112 -381 0zm562 -70c0,19 4,33 13,42 9,8 23,13 44,13l4 0 3 0 0 15 -191 0 0 -15 7 0c20,0 35,-5 43,-13 9,-9 14,-23 14,-42l0 -328c0,-19 -5,-33 -14,-42 -8,-8 -23,-13 -43,-13l-7 0 0 -16 191 0 0 16 -7 0c-21,0 -35,5 -44,13 -9,9 -13,23 -13,42l0 165c14,0 29,-6 45,-18 17,-11 37,-32 61,-60 22,-26 39,-48 52,-68 12,-20 19,-34 19,-43 0,-9 -4,-16 -11,-21 -6,-4 -20,-8 -39,-11l0 -15 187 0 0 15c-19,2 -34,5 -47,9 -12,4 -23,9 -31,14 -6,5 -12,10 -18,18 -6,7 -16,21 -28,40 -18,27 -35,51 -53,72 -17,21 -36,40 -55,58 9,4 17,9 24,15 8,5 14,12 21,18 18,19 41,47 68,84 26,37 46,62 59,76 12,13 24,22 35,27 11,5 24,8 39,8 1,0 3,0 5,0 2,0 4,0 5,0 2,0 3,0 3,0 1,0 2,0 3,0l0 15 -205 0 0 -15 10 0c12,0 20,-2 26,-5 6,-3 9,-7 9,-13 0,-10 -8,-26 -24,-49 -16,-23 -37,-49 -64,-78 -18,-20 -34,-34 -47,-41 -13,-8 -26,-12 -40,-12 -1,0 -2,0 -3,0 -2,0 -3,-1 -3,-1 -1,0 -2,1 -2,1 -1,0 -1,0 -1,0l0 143zm432 -165l126 0 -63 -175 -63 175zm-163 235l0 -15c18,-1 32,-4 41,-10 9,-6 19,-23 29,-49l129 -360c3,-6 4,-12 6,-17 1,-4 1,-8 1,-12 0,-2 0,-5 -1,-7 0,-3 -1,-6 -2,-9l62 0 143 401c10,27 19,44 27,52 8,7 20,11 34,11l7 0 0 15 -196 0 1 -15c0,0 1,0 2,0 11,1 19,1 23,1 17,0 30,-2 38,-6 7,-5 11,-12 11,-21 0,-3 0,-6 -2,-11 -1,-5 -3,-11 -5,-18l-48 -136 -147 0 -50 136c-2,6 -4,12 -5,16 -1,4 -1,8 -2,11 0,10 4,17 11,22 8,5 19,7 34,7 4,0 11,0 22,-1 1,0 1,0 2,0l0 15 -165 0zm836 -469l0 16 -7 0c-20,0 -35,5 -44,13 -9,9 -13,23 -13,42l0 198c0,31 2,55 7,72 4,17 12,33 22,46 13,17 31,31 54,40 23,10 49,15 78,15 30,0 57,-5 82,-15 24,-10 42,-24 55,-42 10,-12 16,-28 20,-46 4,-18 6,-45 6,-81l0 -187c0,-19 -4,-33 -13,-42 -9,-8 -24,-13 -44,-13l-7 0 0 -16 163 0 0 16 -8 0c-20,0 -34,5 -43,13 -9,9 -13,23 -13,42l0 198c0,73 -18,126 -52,160 -34,34 -88,51 -162,51 -69,0 -121,-17 -155,-52 -35,-35 -52,-88 -52,-159l0 -198c0,-19 -4,-33 -13,-42 -9,-8 -23,-13 -43,-13l-8 0 0 -16 190 0zm645 399c0,19 5,33 14,41 9,9 23,13 43,13l7 0 0 16 -190 0 0 -16 8 0c20,0 34,-4 43,-13 9,-8 13,-22 13,-41l0 -369 -98 0c-27,0 -45,5 -54,15 -9,10 -16,33 -21,70l-16 0 12 -125 14 0c2,4 4,7 8,8 3,2 11,2 21,2l329 0c11,0 19,0 22,-2 4,-1 7,-4 8,-8l15 0 11 125 -15 0c-5,-37 -12,-60 -21,-70 -9,-10 -27,-15 -55,-15l-98 0 0 369zm304 -165l126 0 -63 -175 -63 175zm-163 235l0 -15c18,-1 32,-4 41,-10 9,-6 19,-23 29,-49l129 -360c3,-6 5,-12 6,-17 1,-4 2,-8 2,-12 0,-2 -1,-5 -1,-7 -1,-3 -2,-6 -3,-9l62 0 143 401c10,27 19,44 27,52 8,7 20,11 34,11l7 0 0 15 -196 0 1 -15c0,0 1,0 2,0 11,1 19,1 23,1 18,0 30,-2 38,-6 7,-5 11,-12 11,-21 0,-3 0,-6 -2,-11 -1,-5 -2,-11 -5,-18l-48 -136 -147 0 -50 136c-2,6 -4,12 -5,16 -1,4 -1,8 -2,11 0,10 4,17 11,22 8,5 19,7 34,7 4,0 12,0 22,-1 1,0 1,0 2,0l0 15 -165 0zm468 0l0 -15 6 0c20,0 34,-4 41,-12 7,-8 12,-26 14,-52l20 -315c0,-2 0,-4 0,-6 1,-2 1,-5 1,-9 0,-15 -3,-25 -10,-32 -6,-6 -18,-10 -35,-13l0 -15 103 0 175 386 179 -386 101 0 0 15c-19,2 -31,6 -37,10 -6,5 -9,12 -9,22 0,2 0,6 0,10 0,5 1,10 1,15l21 309c2,34 7,55 14,62 6,8 20,11 40,11l3 0 0 15 -175 0 0 -15 6 0c20,0 34,-4 43,-13 9,-9 14,-23 14,-43 0,-3 0,-6 0,-8 0,-2 0,-4 -1,-5l-21 -307 -179 388 -20 3 -182 -391 -19 312c0,1 0,3 0,6 0,3 0,5 0,6 0,19 4,33 11,40 8,8 22,12 42,12l0 15 -147 0zm788 -235l126 0 -63 -175 -63 175zm-163 235l0 -15c18,-1 32,-4 41,-10 9,-6 19,-23 28,-49l130 -360c2,-6 4,-12 6,-17 1,-4 1,-8 1,-12 0,-2 0,-5 -1,-7 0,-3 -1,-6 -3,-9l63 0 143 401c10,27 19,44 27,52 8,7 19,11 34,11l7 0 0 15 -196 0 1 -15c0,0 1,0 2,0 11,1 19,1 23,1 17,0 30,-2 37,-6 8,-5 12,-12 12,-21 0,-3 -1,-6 -2,-11 -1,-5 -3,-11 -5,-18l-48 -136 -148 0 -49 136c-2,6 -4,12 -5,16 -1,4 -2,8 -2,11 0,10 4,17 11,22 7,5 19,7 34,7 4,0 11,0 22,-1 0,0 1,0 2,0l0 15 -165 0z"/>
    <g>
     <path class="fil2" d="M2440 1785l701 0 0 1136c-255,122 -427,350 -427,610 -98,33 -189,72 -274,116l0 -1862z"/>
     <path class="fil2" d="M2440 1785l701 0 0 1136c-255,122 -427,350 -427,610 -98,33 -189,72 -274,116l0 -1862z"/>
     <path class="fil2" d="M3219 2110l701 0 0 778c-107,-39 -225,-61 -350,-61 -125,0 -244,22 -351,61l0 -778z"/>
     <path class="fil2" d="M3219 2110l701 0 0 778c-107,-39 -225,-61 -350,-61 -125,0 -244,22 -351,61l0 -778z"/>
     <path class="fil2" d="M3999 1785l701 0 0 1862c-85,-44 -177,-83 -274,-116 0,-260 -172,-488 -427,-610l0 -1136z"/>
     <path class="fil2" d="M3999 1785l701 0 0 1862c-85,-44 -177,-83 -274,-116 0,-260 -172,-488 -427,-610l0 -1136z"/>
    </g>
   </g>
  </g>
 </g>
</svg>
